<svg xmlns="http://www.w3.org/2000/svg" viewBox="0 0 128 128"><defs><style>.cls-1{isolation:isolate;}.cls-2{mix-blend-mode:multiply;}.cls-3{fill:#489de3;}.cls-4{fill:#7569b0;}.cls-5{fill:#093357;}.cls-6{fill:#e05951;}</style></defs><title>science</title><g class="cls-1"><g id="icons" class="cls-2"><path class="cls-3" d="M32.16,95.5c-6.37,0-11.05-1.79-13.2-5.5-5.7-9.87,9.36-28.5,35-43.32S103.33,28.12,109,38,99.67,66.5,74,81.32C58,90.57,42.74,95.5,32.16,95.5ZM96,36.54a42,42,0,0,0-7.35.72C79,39,67.37,43.58,56,50.14S34.88,64.45,28.54,71.95c-5.72,6.77-8,12.77-6.11,16.05s8.23,4.3,17,2.73C49,89,60.63,84.42,72,77.86s21.12-14.31,27.46-21.8c5.72-6.77,8-12.77,6.11-16.05C104.26,37.73,100.83,36.54,96,36.54Z"/><path class="cls-4" d="M95.84,95.5C85.26,95.5,70,90.57,54,81.32,28.33,66.5,13.27,47.88,19,38s29.36-6.14,55,8.68S114.73,80.13,109,90C106.89,93.71,102.21,95.5,95.84,95.5ZM32,36.54c-4.87,0-8.31,1.19-9.61,3.46-1.89,3.28.39,9.28,6.11,16.05C34.88,63.55,44.63,71.29,56,77.86S79,89,88.61,90.73c8.73,1.57,15.07.55,17-2.73s-.39-9.28-6.11-16.05C93.12,64.45,83.37,56.71,72,50.14S49,39,39.39,37.27A41.94,41.94,0,0,0,32,36.54Z"/><path class="cls-5" d="M64,116c-11.4,0-20-22.35-20-52s8.6-52,20-52S84,34.35,84,64,75.4,116,64,116ZM64,16c-3.79,0-7.84,5-10.85,13.32C49.83,38.55,48,50.87,48,64s1.83,25.45,5.15,34.68C56.16,107,60.21,112,64,112s7.84-5,10.85-13.32C78.17,89.45,80,77.13,80,64s-1.83-25.45-5.15-34.68C71.84,21,67.79,16,64,16Z"/><circle class="cls-6" cx="64" cy="64" r="8"/></g></g></svg>